HIERARCHY
ROOT Hips
{
	OFFSET 0.000000 0.000000 0.000000
	CHANNELS 6 Xposition Yposition Zposition Zrotation Yrotation Xrotation 
	JOINT LHipJoint
	{
		OFFSET 0.000000 0.000000 0.000000
		CHANNELS 3 Zrotation Yrotation Xrotation
		JOINT LeftUpLeg
		{
			OFFSET 1.363060 -1.794630 0.839290
			CHANNELS 3 Zrotation Yrotation Xrotation
			JOINT LeftLeg
			{
				OFFSET 2.448110 -6.726130 0.000000
				CHANNELS 3 Zrotation Yrotation Xrotation
				JOINT LeftFoot
				{
					OFFSET 2.562200 -7.039590 0.000000
					CHANNELS 3 Zrotation Yrotation Xrotation
					JOINT LeftToeBase
					{
						OFFSET 0.157640 -0.433110 2.322550
						CHANNELS 3 Zrotation Yrotation Xrotation
						End Site
						{
							OFFSET 0.000000 0.000000 0.000000
						}
					}
				}
			}
		}
	}
	JOINT RHipJoint
	{
		OFFSET 0.000000 0.000000 0.000000
		CHANNELS 3 Zrotation Yrotation Xrotation
		JOINT RightUpLeg
		{
			OFFSET -1.305520 -1.794630 0.839290
			CHANNELS 3 Zrotation Yrotation Xrotation
			JOINT RightLeg
			{
				OFFSET -2.542530 -6.985550 0.000000
				CHANNELS 3 Zrotation Yrotation Xrotation
				JOINT RightFoot
				{
					OFFSET -2.568260 -7.056230 0.000000
					CHANNELS 3 Zrotation Yrotation Xrotation
					JOINT RightToeBase
					{
						OFFSET -0.164730 -0.452590 2.363150
						CHANNELS 3 Zrotation Yrotation Xrotation
						End Site
						{
							OFFSET 0.000000 0.000000 0.000000
						}
					}
				}
			}
		}
	}
	JOINT LowerBack
	{
		OFFSET 0.000000 0.000000 0.000000
		CHANNELS 3 Zrotation Yrotation Xrotation
		JOINT Spine
		{
			OFFSET 0.028270 2.035590 -0.193380
			CHANNELS 3 Zrotation Yrotation Xrotation
			JOINT Spine1
			{
				OFFSET 0.056720 2.048850 -0.042750
				CHANNELS 3 Zrotation Yrotation Xrotation
				JOINT Neck
				{
					OFFSET 0.000000 0.000000 0.000000
					CHANNELS 3 Zrotation Yrotation Xrotation
					JOINT Neck1
					{
						OFFSET -0.054170 1.746240 0.172020
						CHANNELS 3 Zrotation Yrotation Xrotation
						JOINT Head
						{
							OFFSET 0.104070 1.761360 -0.123970
							CHANNELS 3 Zrotation Yrotation Xrotation
							End Site
							{
								OFFSET 0.000000 0.000000 0.000000
							}
						}
					}
				}
				JOINT LeftShoulder
				{
					OFFSET 0.000000 0.000000 0.000000
					CHANNELS 3 Zrotation Yrotation Xrotation
					JOINT LeftArm
					{
						OFFSET 3.362410 1.200890 -0.311210
						CHANNELS 3 Zrotation Yrotation Xrotation
						JOINT LeftForeArm
						{
							OFFSET 4.983000 -0.000000 -0.000000
							CHANNELS 3 Zrotation Yrotation Xrotation
							JOINT LeftHand
							{
								OFFSET 3.483560 -0.000000 -0.000000
								CHANNELS 3 Zrotation Yrotation Xrotation
								JOINT LeftFingerBase
								{
									OFFSET 0.000000 0.000000 0.000000
									CHANNELS 3 Zrotation Yrotation Xrotation
									JOINT LeftHandIndex1
									{
										OFFSET 0.715260 -0.000000 -0.000000
										CHANNELS 3 Zrotation Yrotation Xrotation
										End Site
										{
											OFFSET 0.000000 0.000000 0.000000
										}
									}
								}
								JOINT LThumb
								{
									OFFSET 0.000000 0.000000 0.000000
									CHANNELS 3 Zrotation Yrotation Xrotation
									End Site
									{
										OFFSET 0.000000 0.000000 0.000000
									}
								}
							}
						}
					}
				}
				JOINT RightShoulder
				{
					OFFSET 0.000000 0.000000 0.000000
					CHANNELS 3 Zrotation Yrotation Xrotation
					JOINT RightArm
					{
						OFFSET -3.136600 1.374050 -0.404650
						CHANNELS 3 Zrotation Yrotation Xrotation
						JOINT RightForeArm
						{
							OFFSET -5.241900 -0.000000 -0.000000
							CHANNELS 3 Zrotation Yrotation Xrotation
							JOINT RightHand
							{
								OFFSET -3.444170 -0.000000 -0.000000
								CHANNELS 3 Zrotation Yrotation Xrotation
								JOINT RightFingerBase
								{
									OFFSET 0.000000 0.000000 0.000000
									CHANNELS 3 Zrotation Yrotation Xrotation
									JOINT RightHandIndex1
									{
										OFFSET -0.622530 -0.000000 -0.000000
										CHANNELS 3 Zrotation Yrotation Xrotation
										End Site
										{
											OFFSET 0.000000 0.000000 0.000000
										}
									}
								}
								JOINT RThumb
								{
									OFFSET 0.000000 0.000000 0.000000
									CHANNELS 3 Zrotation Yrotation Xrotation
									End Site
									{
										OFFSET 0.000000 0.000000 0.000000
									}
								}
							}
						}
					}
				}
			}
		}
	}
}
MOTION
Frames: 9
Frame Time: 0.008333
53.341315 17.184275 -5.933431 -38.530974 -86.892206 37.710384 0.438711 0.357504 0.081748 -14.699829 4.409950 -4.108772 -0.496910 5.749880 16.106141 -0.692912 4.882733 -0.699976 0.138300 -2.396600 -6.603200 0.426640 0.626948 -0.216899 21.754994 5.835379 -7.496325 -1.265351 -10.797897 29.701278 1.256579 -8.139938 -12.902730 -0.261000 -3.286700 9.078000 2.059726 -0.582250 0.427671 0.953675 -0.610839 -1.250198 -2.900431 -0.295709 2.533143 -2.096189 -0.185993 -3.757026 8.963408 -1.343393 0.903875 2.381900 -0.751700 -2.089100 -5.901759 -4.907718 1.291891 -76.235993 3.436792 28.843351 10.692060 -21.910304 -3.254124 -1.359015 -1.661330 -18.708816 16.923841 10.544336 3.910200 -7.125000 0.000000 0.000000 -7.560600 42.108800 0.542700 6.839395 4.056593 0.603527 77.962767 -6.219135 23.630283 -12.416072 24.740592 -3.915101 1.333274 0.328298 -0.177784 -17.944256 -5.980744 2.189000 7.125000 0.000000 0.000000 6.292500 -36.560700 1.312400 
53.348602 17.183958 -5.957404 -36.975337 -86.881749 36.133387 0.438722 0.345534 0.078054 -14.687072 4.356015 -4.098455 -0.497133 5.745604 16.100996 -0.705836 4.926517 -0.661918 0.146900 -2.469600 -6.805300 0.420792 0.618504 -0.213477 21.770852 5.764721 -7.561620 -1.286345 -10.832654 29.799344 1.290517 -8.259983 -12.938803 -0.229500 -3.083200 8.510400 2.075262 -0.578281 0.468967 0.948771 -0.602779 -1.252272 -2.947670 -0.293786 2.512904 -2.059096 -0.214199 -3.777464 8.929790 -1.377983 0.885091 2.356400 -0.770300 -2.088800 -5.898493 -4.915177 1.294469 -76.226936 3.455229 28.725691 10.627419 -21.831601 -3.231365 -1.369252 -1.661510 -18.568249 16.986098 10.593975 3.942400 -7.125000 0.000000 0.000000 -7.508600 42.167800 0.527900 6.822879 4.063822 0.598283 78.034166 -6.181736 23.703339 -12.690060 25.043322 -4.029140 1.320774 0.420630 -0.742309 -17.368297 -6.844295 2.433300 7.125000 0.000000 0.000000 6.902600 -37.511100 1.279600 
53.353671 17.179734 -5.982539 -35.417611 -86.841102 34.511719 0.443471 0.336225 0.072406 -14.642173 4.334262 -4.088809 -0.487232 5.772394 16.185487 -0.688393 4.863560 -0.659246 0.150300 -2.498500 -6.885400 0.414669 0.607932 -0.209567 21.821015 5.752259 -7.539861 -1.293678 -10.848247 29.842287 1.257684 -8.160745 -12.969023 -0.244400 -3.181000 8.783000 2.112948 -0.606810 0.497133 0.949881 -0.638927 -1.251936 -2.990733 -0.313622 2.535676 -2.013675 -0.229774 -3.869847 8.851116 -1.390859 0.967508 2.289300 -0.772900 -2.010800 -5.899268 -4.913152 1.290629 -76.224865 3.446368 28.521817 10.520841 -21.703351 -3.195658 -1.394322 -1.662934 -18.483824 17.209407 10.660989 4.018100 -7.125000 0.000000 0.000000 -7.301800 42.255600 0.497300 6.829868 4.068080 0.592293 78.044367 -6.189188 23.965048 -12.688992 25.045638 -4.020798 1.326609 0.341018 -0.488247 -17.897375 -6.077685 2.218100 7.125000 0.000000 0.000000 6.348100 -36.665000 1.307900 
53.359268 17.175932 -6.007357 -33.559880 -86.845864 32.627619 0.443578 0.318360 0.064224 -14.653652 4.282223 -4.109801 -0.477891 5.799441 16.264297 -0.699484 4.901070 -0.648178 0.154900 -2.536100 -6.989700 0.409813 0.597294 -0.205673 21.810627 5.732167 -7.584544 -1.302368 -10.865610 29.885779 1.268955 -8.199214 -12.975188 -0.241200 -3.160600 8.726100 2.095748 -0.610228 0.533234 0.944768 -0.640008 -1.249605 -3.004510 -0.316150 2.516913 -2.071406 -0.236786 -3.824266 8.857424 -1.398930 0.917080 2.318000 -0.777000 -2.052400 -5.906981 -4.916305 1.295493 -76.217797 3.498170 28.380820 10.476786 -21.653415 -3.183030 -1.404237 -1.667835 -18.452961 17.305174 10.720848 4.062900 -7.125000 0.000000 0.000000 -7.218800 42.329900 0.478300 6.816882 4.064168 0.593260 78.065010 -6.180846 24.122866 -12.814439 25.188757 -4.070911 1.325587 0.350492 -0.636931 -17.880840 -6.167347 2.249000 7.125000 0.000000 0.000000 6.373500 -36.764200 1.297600 
53.365288 17.172130 -6.032387 -32.143226 -86.835540 31.174015 0.445566 0.304264 0.057185 -14.633956 4.236024 -4.148220 -0.463318 5.841774 16.384022 -0.703972 4.916075 -0.651689 0.161400 -2.588500 -7.135000 0.405007 0.589585 -0.202187 21.834302 5.704936 -7.608061 -1.308247 -10.876931 29.914249 1.279321 -8.232425 -12.969646 -0.237300 -3.135100 8.655100 2.110890 -0.616149 0.570727 0.942408 -0.645786 -1.248864 -3.031356 -0.320108 2.510858 -2.083141 -0.241264 -3.844700 8.835375 -1.401657 0.906025 2.310900 -0.777700 -2.051300 -5.910422 -4.918922 1.296934 -76.215726 3.523791 28.207500 10.411467 -21.574749 -3.162175 -1.417320 -1.670200 -18.385379 17.416283 10.775151 4.109000 -7.125000 0.000000 0.000000 -7.119400 42.397800 0.459600 6.810149 4.066026 0.591631 78.084936 -6.167260 24.293653 -12.920990 25.308678 -4.112277 1.324732 0.348189 -0.731422 -17.925276 -6.141358 2.244000 7.125000 0.000000 0.000000 6.332800 -36.734700 1.293800 
53.371624 17.168117 -6.057310 -30.803438 -86.822471 29.799047 0.447215 0.289846 0.050214 -14.609534 4.195134 -4.204173 -0.446745 5.890405 16.520364 -0.708006 4.929629 -0.646190 0.168200 -2.642200 -7.284200 0.399728 0.583028 -0.199187 21.861543 5.674740 -7.638763 -1.314435 -10.888524 29.943802 1.294457 -8.281406 -12.964109 -0.231100 -3.093900 8.540200 2.130842 -0.622142 0.607903 0.940626 -0.651874 -1.248487 -3.057098 -0.323954 2.503867 -2.096576 -0.240330 -3.867557 8.814909 -1.397325 0.890601 2.305000 -0.775200 -2.052500 -5.913731 -4.921677 1.298117 -76.217196 3.552571 28.021387 10.349164 -21.499419 -3.142840 -1.429188 -1.673336 -18.321214 17.515332 10.836109 4.155100 -7.125000 0.000000 0.000000 -7.032700 42.472500 0.441000 6.804362 4.067956 0.590556 78.097525 -6.152017 24.463387 -13.015166 25.414340 -4.148501 1.324489 0.344043 -0.808479 -17.982337 -6.099789 2.234600 7.125000 0.000000 0.000000 6.279100 -36.688100 1.289900 
53.378489 17.164315 -6.082234 -29.579120 -86.807618 28.545452 0.448694 0.275061 0.043155 -14.579474 4.157847 -4.283251 -0.428043 5.946290 16.675300 -0.710720 4.939097 -0.630453 0.174900 -2.694200 -7.428600 0.394137 0.578203 -0.196901 21.892020 5.637847 -7.680168 -1.321297 -10.900678 29.975374 1.316185 -8.352601 -12.962903 -0.220300 -3.021500 8.338500 2.155763 -0.627778 0.646204 0.939725 -0.658002 -1.248245 -3.079423 -0.327390 2.496242 -2.114385 -0.233906 -3.894377 8.798556 -1.386379 0.866694 2.302700 -0.769500 -2.058000 -5.916302 -4.925130 1.299130 -76.227516 3.580863 27.817886 10.292719 -21.430057 -3.125975 -1.440229 -1.676233 -18.253815 17.607105 10.898059 4.200000 -7.125000 0.000000 0.000000 -6.953400 42.547800 0.422900 6.798789 4.070412 0.590382 78.102533 -6.126703 24.626519 -13.109288 25.518758 -4.185071 1.324162 0.346083 -0.908555 -18.001169 -6.118648 2.243400 7.125000 0.000000 0.000000 6.265300 -36.708500 1.283900 
53.385882 17.160936 -6.106630 -28.486241 -86.791352 27.425576 0.450616 0.260295 0.035927 -14.544227 4.128118 -4.382321 -0.406873 6.009981 16.850401 -0.710495 4.938485 -0.605696 0.181100 -2.741200 -7.559100 0.388232 0.574684 -0.194929 21.924607 5.587102 -7.728077 -1.328784 -10.913217 30.009118 1.333485 -8.408689 -12.958409 -0.209900 -2.949800 8.139000 2.193124 -0.633963 0.686527 0.939047 -0.665079 -1.248223 -3.107428 -0.330869 2.489840 -2.129255 -0.230524 -3.929373 8.779436 -1.378708 0.849881 2.297700 -0.765100 -2.056400 -5.918204 -4.928282 1.299097 -76.244914 3.606390 27.590865 10.239329 -21.362634 -3.110706 -1.451710 -1.679505 -18.176409 17.703345 10.970164 4.249900 -7.125000 0.000000 0.000000 -6.871700 42.634800 0.403100 6.793990 4.074147 0.590298 78.101965 -6.095211 24.784935 -13.194807 25.613457 -4.218294 1.324226 0.348668 -1.004481 -18.016920 -6.145413 2.254800 7.125000 0.000000 0.000000 6.254600 -36.737600 1.277200 
53.393485 17.157767 -6.130497 -27.421855 -86.765185 26.336333 0.452759 0.244666 0.028176 -14.504676 4.097646 -4.500036 -0.383290 6.081890 17.047717 -0.706245 4.924330 -0.570539 0.186100 -2.778300 -7.662200 0.381713 0.571636 -0.192655 21.957961 5.515689 -7.783326 -1.336587 -10.925856 30.044298 1.345558 -8.448634 -12.957377 -0.199900 -2.879100 7.942300 2.241792 -0.643143 0.730816 0.938808 -0.676430 -1.248795 -3.140538 -0.335945 2.479953 -2.142220 -0.223850 -3.966004 8.759335 -1.366659 0.829538 2.291700 -0.758800 -2.056300 -5.919661 -4.931957 1.298693 -76.268392 3.634061 27.354368 10.190885 -21.299875 -3.097402 -1.464221 -1.682873 -18.096965 17.813823 11.047062 4.305400 -7.125000 0.000000 0.000000 -6.777200 42.728100 0.381800 6.789519 4.078747 0.590681 78.097346 -6.060905 24.930638 -13.269527 25.695884 -4.247352 1.324528 0.351234 -1.090943 -18.029583 -6.174598 2.266800 7.125000 0.000000 0.000000 6.246900 -36.769600 1.270700 
